<svg id="Capa_1" enable-background="new 0 0 512 512" height="512" viewBox="0 0 512 512" width="512" xmlns="http://www.w3.org/2000/svg"><g fill="rgb(0,0,0)"><circle cx="128" cy="127.187" r="17"/><path d="m492.301 16.942-77.301 25.501v169.488l77.301 25.501c9.693 3.196 19.699-4.028 19.699-14.245v-192c0-10.204-9.997-17.445-19.699-14.245z"/><path d="m129.303 252.536c14.325-.193-1.503 1.921 255.697-43.47v-163.758l-235.343-41.533c-77.167-13.614-149.657 45.219-149.657 123.412 0 70.414 59.166 126.397 129.303 125.349zm-48.303-125.349c0-25.916 21.084-47 47-47s47 21.084 47 47-21.084 47-47 47-47-21.084-47-47z"/><path d="m396 312.187c-27.926 0-51 22.562-51 51v51c0 36.126-28.936 65.734-64.501 66-33.399.167-59.972-24.258-64.718-54.916 22.411-10.242 35.268-34.28 31.044-58.778l-17.166-99.549c-35.485 6.262-69.876 12.437-107.419 18.685l17.297 99.446c4.093 23.526 22.895 41.538 46.563 44.642 6.842 44.875 45.929 80.864 94.622 80.47 51.985-.389 94.278-43.454 94.278-96v-51c0-11.718 9.498-21 21-21 11.58 0 21 9.42 21 21v132c0 8.284 6.716 15 15 15s15-6.716 15-15v-132c0-28.121-22.878-51-51-51z"/></g></svg>